# xmcd CD database file
#
# Track frame offsets:
#	150
#	14870
#	31113
#	43256
#	58173
#	75459
#	90420
#	100987
#	118468
#	132184
#	142956
#
# Disc length: 2041 seconds
#
# Revision: 0
# Processed by: cddbd v1.5.2PL0 Copyright (c) Steve Scherf et al.
# Submitted via: CDex 1.51
#
DISCID=9507f70b
DTITLE=Garon, Jessy - same
DYEAR=1900
DGENRE=Country
TTITLE0=Rumour
TTITLE1=Taxi Drivin' Man
TTITLE2=Break Away
TTITLE3=In My Hometown
TTITLE4=Train
TTITLE5=Wheels In The Wind
TTITLE6=Lucky Time
TTITLE7=My Angel
TTITLE8=Bye Bye Love
TTITLE9=Pretty One
TTITLE10=Let's Be Friends
EXTD=
EXTT0=
EXTT1=
EXTT2=
EXTT3=
EXTT4=
EXTT5=
EXTT6=
EXTT7=
EXTT8=
EXTT9=
EXTT10=
PLAYORDER=
